<?xml version="1.0" encoding="UTF-8" standalone="no"?>
<svg width="120px" height="120px" viewBox="0 0 120 120" version="1.1" xmlns="http://www.w3.org/2000/svg" xmlns:xlink="http://www.w3.org/1999/xlink">
    <!-- Generator: Sketch 40.1 (33804) - http://www.bohemiancoding.com/sketch -->
    <title>Icon</title>
    <desc>Created with Sketch.</desc>
    <defs>
        <rect id="path-1" x="0" y="-7.10542736e-15" width="120" height="120" rx="60"></rect>
    </defs>
    <g id="HM" stroke="none" stroke-width="1" fill="none" fill-rule="evenodd">
        <g id="Plan-Your-Visit" transform="translate(-359.000000, -2528.000000)">
            <g id="Location-&amp;-Parking" transform="translate(149.000000, 1895.000000)">
                <g id="Directions" transform="translate(0.000000, 153.000000)">
                    <g id="Address" transform="translate(40.000000, 41.000000)">
                        <g id="Icon" transform="translate(170.000000, 439.000000)">
                            <mask id="mask-2" fill="white">
                                <use xlink:href="#path-1"></use>
                            </mask>
                            <use id="Mask" fill="#00ADEF" xlink:href="#path-1"></use>
                            <g id="LocaTION" mask="url(#mask-2)" fill="#FFFFFF">
                                <g transform="translate(45.000000, 40.000000)" id="Shape">
                                    <path d="M15,40 C10.3333333,40 0,25.5 0,15 C0,6.66666667 6.66666667,0 15,0 C23.3333333,0 30,6.66666667 30,15 C30,21.6666667 26,28.6666667 24.3333333,31.3333333 C23.3333333,32.8333333 18.6666667,40 15,40 L15,40 Z M15,3.33333333 C8.5,3.33333333 3.33333333,8.5 3.33333333,15 C3.33333333,24.3333333 12.6666667,36.1666667 15,36.6666667 C17.3333333,36.1666667 26.6666667,24.3333333 26.6666667,15 C26.6666667,8.5 21.5,3.33333333 15,3.33333333 L15,3.33333333 Z"></path>
                                    <path d="M15,23.3333333 C10.3333333,23.3333333 6.66666667,19.6666667 6.66666667,15 C6.66666667,10.3333333 10.3333333,6.66666667 15,6.66666667 C19.6666667,6.66666667 23.3333333,10.3333333 23.3333333,15 C23.3333333,19.6666667 19.6666667,23.3333333 15,23.3333333 L15,23.3333333 Z M15,10 C12.1666667,10 10,12.1666667 10,15 C10,17.8333333 12.1666667,20 15,20 C17.8333333,20 20,17.8333333 20,15 C20,12.1666667 17.8333333,10 15,10 L15,10 Z"></path>
                                </g>
                            </g>
                            <g id="pin-2" mask="url(#mask-2)">
                                <g transform="translate(45.000000, 40.000000)" id="Layer_1">
                                    <g></g>
                                </g>
                            </g>
                        </g>
                    </g>
                </g>
            </g>
        </g>
    </g>
</svg>