<?xml version="1.0" encoding="UTF-8" standalone="no"?>
<svg width="24px" height="8px" viewBox="0 0 24 8" version="1.1" xmlns="http://www.w3.org/2000/svg" xmlns:xlink="http://www.w3.org/1999/xlink">
    <!-- Generator: Sketch 40.1 (33804) - http://www.bohemiancoding.com/sketch -->
    <title>Group Copy</title>
    <desc>Created with Sketch.</desc>
    <defs></defs>
    <g id="HM" stroke="none" stroke-width="1" fill="none" fill-rule="evenodd">
        <g id="Volunteer" transform="translate(-495.000000, -607.000000)" fill="#FFFFFF">
            <g id="Side-Menu" transform="translate(152.000000, 581.000000)">
                <g id="Left-Sidebar">
                    <g id="Group-Copy" transform="translate(355.000000, 30.000000) rotate(-90.000000) translate(-355.000000, -30.000000) translate(351.000000, 18.000000)">
                        <path d="M4,24 C3.7,24 3.5,23.9 3.3,23.7 L0.3,20.7 C-0.1,20.3 -0.1,19.7 0.3,19.3 C0.7,18.9 1.3,18.9 1.7,19.3 L4.7,22.3 C5.1,22.7 5.1,23.3 4.7,23.7 C4.5,23.9 4.3,24 4,24 L4,24 Z" id="Shape"></path>
                        <path d="M4,24 C3.7,24 3.5,23.9 3.3,23.7 C2.9,23.3 2.9,22.7 3.3,22.3 L6.3,19.3 C6.7,18.9 7.3,18.9 7.7,19.3 C8.1,19.7 8.1,20.3 7.7,20.7 L4.7,23.7 C4.5,23.9 4.3,24 4,24 L4,24 Z" id="Shape"></path>
                        <path d="M4,24 C3.4,24 3,23.6 3,23 L3,1 C3,0.4 3.4,0 4,0 C4.6,0 5,0.4 5,1 L5,23 C5,23.6 4.6,24 4,24 L4,24 Z" id="Shape"></path>
                    </g>
                </g>
            </g>
        </g>
    </g>
</svg>