<?xml version="1.0" encoding="UTF-8" standalone="no"?>
<svg width="40px" height="40px" viewBox="0 0 40 40" version="1.1" xmlns="http://www.w3.org/2000/svg" xmlns:xlink="http://www.w3.org/1999/xlink">
    <!-- Generator: Sketch 40.1 (33804) - http://www.bohemiancoding.com/sketch -->
    <title>clock</title>
    <desc>Created with Sketch.</desc>
    <defs></defs>
    <g id="HM" stroke="none" stroke-width="1" fill="none" fill-rule="evenodd">
        <g id="Home" transform="translate(-327.000000, -1126.000000)" fill="#FFFFFF">
            <g id="Plan-Your-Visit" transform="translate(0.000000, 825.000000)">
                <g id="Group-3" transform="translate(152.000000, 220.000000)">
                    <g id="Tickets-Copy-2">
                        <g id="clock" transform="translate(175.000000, 81.000000)">
                            <g id="Layer_1">
                                <g id="Group">
                                    <path d="M20,40 C9,40 0,31 0,20 C0,9 9,0 20,0 C31,0 40,9 40,20 C40,31 31,40 20,40 L20,40 Z M20,3.33333333 C10.8333333,3.33333333 3.33333333,10.8333333 3.33333333,20 C3.33333333,29.1666667 10.8333333,36.6666667 20,36.6666667 C29.1666667,36.6666667 36.6666667,29.1666667 36.6666667,20 C36.6666667,10.8333333 29.1666667,3.33333333 20,3.33333333 L20,3.33333333 Z" id="Shape"></path>
                                    <path d="M20,21.6666667 C19,21.6666667 18.3333333,21 18.3333333,20 L18.3333333,8.33333333 C18.3333333,7.33333333 19,6.66666667 20,6.66666667 C21,6.66666667 21.6666667,7.33333333 21.6666667,8.33333333 L21.6666667,20 C21.6666667,21 21,21.6666667 20,21.6666667 L20,21.6666667 Z" id="Shape"></path>
                                    <path d="M26.6666667,28.3333333 C26.1666667,28.3333333 25.8333333,28.1666667 25.5,27.8333333 L18.8333333,21.1666667 C18.1666667,20.5 18.1666667,19.5 18.8333333,18.8333333 C19.5,18.1666667 20.5,18.1666667 21.1666667,18.8333333 L27.8333333,25.5 C28.5,26.1666667 28.5,27.1666667 27.8333333,27.8333333 C27.5,28.1666667 27.1666667,28.3333333 26.6666667,28.3333333 L26.6666667,28.3333333 Z" id="Shape"></path>
                                </g>
                            </g>
                        </g>
                    </g>
                </g>
            </g>
        </g>
    </g>
</svg>