<?xml version="1.0" encoding="UTF-8" standalone="no"?>
<svg width="400px" height="49px" viewBox="0 0 400 49" version="1.1" xmlns="http://www.w3.org/2000/svg" xmlns:xlink="http://www.w3.org/1999/xlink">
    <!-- Generator: Sketch 40.1 (33804) - http://www.bohemiancoding.com/sketch -->
    <title>Logo</title>
    <desc>Created with Sketch.</desc>
    <defs>
        <polygon id="path-1" points="0 48.2936508 399.820294 48.2936508 399.820294 0.121706349 0 0.121706349"></polygon>
    </defs>
    <g id="Home" stroke="none" stroke-width="1" fill="none" fill-rule="evenodd">
        <g transform="translate(-80.000000, -51.000000)" id="NAVIGATION">
            <g>
                <g id="Logo" transform="translate(80.000000, 51.000000)">
                    <g id="Page-1">
                        <polygon id="Fill-1" fill="#FDB813" points="0 0.515702381 0 3.97447222 10.9560731 3.97447222 10.9560731 33.6854246 14.6825144 33.6854246 14.6825144 3.97447222 25.6402661 3.97447222 25.6402661 0.515702381"></polygon>
                        <g id="Group-65" transform="translate(0.000000, 0.394337)">
                            <path d="M29.6032189,0.121706349 L33.1920169,0.121706349 L33.1920169,13.0575397 C34.7765937,10.4041667 37.2944595,8.27123016 41.4439022,8.27123016 C47.2702435,8.27123016 50.6727194,12.2521429 50.6727194,18.0810317 L50.6727194,33.2914286 L47.0839215,33.2914286 L47.0839215,18.9819841 C47.0839215,14.4311508 44.660056,11.588373 40.4182916,11.588373 C36.2688488,11.588373 33.1920169,14.6683333 33.1920169,19.2652381 L33.1920169,33.2914286 L29.6032189,33.2914286 L29.6032189,0.121706349 L29.6032189,0.121706349 Z" id="Fill-2" fill="#FDB813"></path>
                            <path d="M73.7034695,19.5972937 C73.2838252,15.1420159 70.7659594,11.3522143 66.0122289,11.3522143 C61.8627862,11.3522143 58.6936325,14.8587619 58.1816665,19.5972937 L73.7034695,19.5972937 Z M66.6651954,30.6851508 C69.9753496,30.6851508 72.3052147,29.3115397 74.2624357,27.226381 L76.499979,29.2637619 C74.0761136,32.0126905 71.1402821,33.8606667 66.5711951,33.8606667 C59.9525654,33.8606667 54.5458684,28.6955476 54.5458684,21.0664603 C54.5458684,13.9578095 59.4389208,8.27225397 66.1062292,8.27225397 C73.2385036,8.27225397 77.3392676,14.0533651 77.3392676,21.2558651 C77.3392676,21.5868968 77.3392676,21.9657063 77.2922674,22.535627 L58.1816665,22.535627 C58.6936325,27.700746 62.423431,30.6851508 66.6651954,30.6851508 L66.6651954,30.6851508 Z" id="Fill-4" fill="#FDB813"></path>
                            <polygon id="Fill-6" fill="#8EBD3E" points="87.9250466 0.121706349 91.6078449 0.121706349 91.6078449 14.8594444 110.439802 14.8594444 110.439802 0.121706349 114.1226 0.121706349 114.1226 33.2914286 110.439802 33.2914286 110.439802 18.3642857 91.6078449 18.3642857 91.6078449 33.2914286 87.9250466 33.2914286"></polygon>
                            <path d="M137.011511,19.5972937 C136.591866,15.1420159 134.074001,11.3522143 129.32027,11.3522143 C125.170827,11.3522143 122.001674,14.8587619 121.489708,19.5972937 L137.011511,19.5972937 Z M129.973237,30.6851508 C133.283391,30.6851508 135.613256,29.3115397 137.570477,27.226381 L139.80802,29.2637619 C137.384155,32.0126905 134.448323,33.8606667 129.879236,33.8606667 C123.260607,33.8606667 117.853909,28.6955476 117.853909,21.0664603 C117.853909,13.9578095 122.746962,8.27225397 129.41427,8.27225397 C136.546545,8.27225397 140.647309,14.0533651 140.647309,21.2558651 C140.647309,21.5868968 140.647309,21.9657063 140.600309,22.535627 L121.489708,22.535627 C122.001674,27.700746 125.731472,30.6851508 129.973237,30.6851508 L129.973237,30.6851508 Z" id="Fill-8" fill="#8EBD3E"></path>
                            <path d="M161.628852,24.2885595 L161.628852,22.013996 C159.857953,21.4918532 157.526409,20.9714167 154.590578,20.9714167 C150.115491,20.9714167 147.550625,22.9610198 147.550625,25.8993532 L147.550625,25.9932024 C147.550625,29.074869 150.348813,30.8750675 153.610289,30.8750675 C158.040054,30.8750675 161.628852,28.1739167 161.628852,24.2885595 M143.916506,26.1843135 L143.916506,26.0887579 C143.916506,20.8297897 148.109591,18.0808611 154.217934,18.0808611 C157.294766,18.0808611 159.438309,18.5074484 161.581852,19.1234405 L161.581852,18.3641151 C161.581852,14.0060992 158.971664,11.7315357 154.449577,11.7315357 C151.606068,11.7315357 149.368524,12.441377 147.130981,13.4856627 L146.060049,10.4995516 C148.715558,9.26586111 151.280424,8.41439286 154.8239,8.41439286 C158.226376,8.41439286 160.881885,9.36141667 162.607462,11.1155437 C164.286039,12.8218929 165.123649,15.1903056 165.123649,18.3180437 L165.123649,33.2912579 L161.581852,33.2912579 L161.581852,29.6430833 C159.904953,31.8220913 157.153765,33.8134008 152.912001,33.8134008 C148.389914,33.8134008 143.916506,31.2060992 143.916506,26.1843135" id="Fill-10" fill="#8EBD3E"></path>
                            <mask id="mask-2" fill="white">
                                <use xlink:href="#path-1"></use>
                            </mask>
                            <g id="Clip-13"></g>
                            <polygon id="Fill-12" fill="#8EBD3E" mask="url(#mask-2)" points="170.239617 33.2914286 173.828415 33.2914286 173.828415 0.121706349 170.239617 0.121706349"></polygon>
                            <path d="M181.148354,26.8003056 L181.148354,12.016496 L177.792878,12.016496 L177.792878,8.79320238 L181.148354,8.79320238 L181.148354,0.121535714 L184.737152,0.121535714 L184.737152,8.79320238 L192.383071,8.79320238 L192.383071,12.016496 L184.737152,12.016496 L184.737152,26.3259405 C184.737152,29.3103452 186.368729,30.4007024 188.792595,30.4007024 C190.006206,30.4007024 191.030138,30.1635198 192.289071,29.5492341 L192.289071,32.6752659 C191.030138,33.3390357 189.678883,33.7178452 187.953306,33.7178452 C184.085864,33.7178452 181.148354,31.7760198 181.148354,26.8003056" id="Fill-14" fill="#8EBD3E" mask="url(#mask-2)"></path>
                            <path d="M196.439353,0.121706349 L200.029829,0.121706349 L200.029829,13.0575397 C201.612728,10.4041667 204.130593,8.27123016 208.280036,8.27123016 C214.106377,8.27123016 217.508853,12.2521429 217.508853,18.0810317 L217.508853,33.2914286 L213.921734,33.2914286 L213.921734,18.9819841 C213.921734,14.4311508 211.49619,11.588373 207.254425,11.588373 C203.104983,11.588373 200.029829,14.6683333 200.029829,19.2652381 L200.029829,33.2914286 L196.439353,33.2914286 L196.439353,0.121706349 Z" id="Fill-15" fill="#8EBD3E" mask="url(#mask-2)"></path>
                            <polygon id="Fill-16" fill="#00ADEF" mask="url(#mask-2)" points="228.093625 0.121706349 231.821745 0.121706349 243.709428 18.2226587 255.595433 0.121706349 259.325232 0.121706349 259.325232 33.2914286 255.642433 33.2914286 255.642433 6.42325397 243.756429 24.1931746 243.570107 24.1931746 231.682423 6.47103175 231.682423 33.2914286 228.093625 33.2914286"></polygon>
                            <path d="M264.441199,24.0039405 L264.441199,8.79354365 L268.029997,8.79354365 L268.029997,23.1046944 C268.029997,27.6521151 270.453863,30.4948929 274.695627,30.4948929 C278.79807,30.4948929 281.920223,27.4166389 281.920223,22.8180278 L281.920223,8.79354365 L285.4637,8.79354365 L285.4637,33.2915992 L281.920223,33.2915992 L281.920223,29.0257262 C280.290325,31.6808056 277.819459,33.8120357 273.670016,33.8120357 C267.843675,33.8120357 264.441199,29.8328294 264.441199,24.0039405" id="Fill-17" fill="#00ADEF" mask="url(#mask-2)"></path>
                            <path d="M289.24352,30.1636905 L291.05974,27.5580952 C293.671606,29.5476984 296.562116,30.684127 299.405626,30.684127 C302.294457,30.684127 304.392678,29.1688889 304.392678,26.8004762 L304.392678,26.7049206 C304.392678,24.2409524 301.54749,23.2922222 298.378336,22.3929762 C294.603216,21.302619 290.408452,19.9767857 290.408452,15.4754365 L290.408452,15.379881 C290.408452,11.1617857 293.857928,8.36678571 298.611659,8.36678571 C301.54749,8.36678571 304.812323,9.40936508 307.283188,11.0679365 L305.651611,13.8151587 C303.412389,12.3476984 300.849202,11.446746 298.519337,11.446746 C295.675827,11.446746 293.857928,12.9619841 293.857928,15.0010714 L293.857928,15.0949206 C293.857928,17.4172619 296.84076,18.3182143 300.056914,19.3130159 C303.786712,20.4494444 307.795154,21.9186111 307.795154,26.3261111 L307.795154,26.4216667 C307.795154,31.0629365 304.018356,33.7657937 299.217625,33.7657937 C295.768149,33.7657937 291.947707,32.3921825 289.24352,30.1636905" id="Fill-18" fill="#00ADEF" mask="url(#mask-2)"></path>
                            <path d="M329.845447,19.5972937 C329.425803,15.1420159 326.907937,11.3522143 322.154207,11.3522143 C318.004764,11.3522143 314.835611,14.8587619 314.323644,19.5972937 L329.845447,19.5972937 Z M322.807173,30.6851508 C326.117328,30.6851508 328.447193,29.3115397 330.406092,27.226381 L332.641957,29.2637619 C330.218092,32.0126905 327.280582,33.8606667 322.714852,33.8606667 C316.094543,33.8606667 310.687846,28.6955476 310.687846,21.0664603 C310.687846,13.9578095 315.580899,8.27225397 322.246529,8.27225397 C329.378803,8.27225397 333.481246,14.0533651 333.481246,21.2558651 C333.481246,21.5868968 333.481246,21.9657063 333.434245,22.535627 L314.323644,22.535627 C314.835611,27.700746 318.565409,30.6851508 322.807173,30.6851508 L322.807173,30.6851508 Z" id="Fill-19" fill="#00ADEF" mask="url(#mask-2)"></path>
                            <path d="M337.119897,24.0039405 L337.119897,8.79354365 L340.708695,8.79354365 L340.708695,23.1046944 C340.708695,27.6521151 343.132561,30.4948929 347.374325,30.4948929 C351.476768,30.4948929 354.598921,27.4166389 354.598921,22.8180278 L354.598921,8.79354365 L358.142398,8.79354365 L358.142398,33.2915992 L354.598921,33.2915992 L354.598921,29.0257262 C352.967344,31.6808056 350.498157,33.8120357 346.350393,33.8120357 C340.522373,33.8120357 337.119897,29.8328294 337.119897,24.0039405" id="Fill-20" fill="#00ADEF" mask="url(#mask-2)"></path>
                            <path d="M363.258533,8.79354365 L366.847331,8.79354365 L366.847331,12.9160833 C368.431908,10.4998929 370.577129,8.27140079 374.630893,8.27140079 C378.548692,8.27140079 381.064879,10.4043373 382.369134,13.1515595 C384.094711,10.4521151 386.659577,8.27140079 390.852663,8.27140079 C396.40036,8.27140079 399.802836,12.0629087 399.802836,18.1272738 L399.802836,33.2915992 L396.214038,33.2915992 L396.214038,18.9804484 C396.214038,14.2419167 393.884173,11.5885437 389.968053,11.5885437 C386.330576,11.5885437 383.302423,14.3374722 383.302423,19.1715595 L383.302423,33.2915992 L379.758946,33.2915992 L379.758946,18.8865992 C379.758946,14.2914008 377.382081,11.5885437 373.559961,11.5885437 C369.737841,11.5885437 366.847331,14.8118373 366.847331,19.3114802 L366.847331,33.2915992 L363.258533,33.2915992 L363.258533,8.79354365 Z" id="Fill-21" fill="#00ADEF" mask="url(#mask-2)"></path>
                            <polygon id="Fill-22" fill="#221F20" mask="url(#mask-2)" points="100.862176 46.8818175 99.5831007 42.3002698 98.458454 42.3002698 100.142067 48.1035635 101.582286 48.1035635 103.208827 42.3002698 102.100966 42.3002698"></polygon>
                            <polygon id="Fill-23" fill="#221F20" mask="url(#mask-2)" points="107.148448 48.104246 111.412034 48.104246 111.412034 47.1265079 108.199237 47.1265079 108.199237 45.5720238 110.950425 45.5720238 110.950425 44.6352381 108.199237 44.6352381 108.199237 43.2684524 111.412034 43.2684524 111.412034 42.299246 107.148448 42.299246"></polygon>
                            <polygon id="Fill-24" fill="#221F20" mask="url(#mask-2)" points="381.79825 46.4023333 379.271991 42.3002698 378.310167 42.3002698 378.310167 48.1035635 379.354241 48.1035635 379.290456 44.0339206 381.789857 48.1035635 382.719789 48.1035635 382.719789 42.3002698 381.670678 42.3002698"></polygon>
                            <path d="M390.420261,46.6581151 C390.136582,47.0369246 389.774009,47.224623 389.329186,47.224623 C388.867578,47.224623 388.489898,47.04375 388.186075,46.6734722 C387.888967,46.3117262 387.742931,45.8100595 387.742931,45.1684722 C387.742931,44.5507738 387.888967,44.0661706 388.181039,43.6975992 C388.473112,43.3256151 388.85247,43.1447421 389.320793,43.1447421 C389.784081,43.1447421 390.121475,43.3170833 390.348083,43.6549405 C390.453833,43.8119246 390.526012,44.0081548 390.557905,44.2299802 L391.627158,43.9416071 C391.2478,42.7522817 390.46894,42.1516468 389.295615,42.1516468 C388.528505,42.1516468 387.89736,42.4058929 387.395465,42.924623 C386.856642,43.4808929 386.586391,44.2385119 386.586391,45.1855357 C386.586391,46.1291468 386.846571,46.8867659 387.35518,47.4464484 C387.85036,47.9805357 388.479826,48.2518452 389.257007,48.2518452 C390.072796,48.2518452 390.72912,47.9583532 391.231014,47.3560119 C391.424051,47.1188294 391.586873,46.8304563 391.724516,46.4857738 L390.720727,46.0574802 C390.648548,46.286131 390.55119,46.4857738 390.420261,46.6581151" id="Fill-25" fill="#221F20" mask="url(#mask-2)"></path>
                            <path d="M93.4766048,46.814246 C93.1694252,47.102619 92.805174,47.2510714 92.392244,47.2510714 C91.9071352,47.2510714 91.5093124,47.0701984 91.2105257,46.6999206 C90.8932746,46.3142857 90.7321312,45.8040873 90.7321312,45.1607937 C90.7321312,44.5584524 90.8865603,44.0653175 91.185347,43.6984524 C91.4841337,43.3247619 91.8735636,43.1438889 92.3670653,43.1438889 C92.9025314,43.1438889 93.3305686,43.3674206 93.6394268,43.8127778 C93.9231064,44.2154762 94.0506782,44.7239683 94.0422853,45.3246032 C94.035571,45.9661905 93.8425347,46.4593254 93.4766048,46.814246 M92.3771368,42.1507937 C91.5915627,42.1507937 90.9436319,42.4374603 90.4182372,43.0227381 C89.891164,43.5977778 89.6343417,44.3315079 89.6343417,45.2119841 C89.6343417,46.0498016 89.8844497,46.7647619 90.3947372,47.3636905 C90.903346,47.9575 91.5596697,48.2526984 92.3586724,48.2526984 C93.2097111,48.2526984 93.8828205,47.9489683 94.3914294,47.3500397 C94.8664667,46.7818254 95.1014675,46.0668651 95.1081818,45.201746 C95.1165747,44.2547222 94.8345738,43.4988095 94.2772861,42.9323016 C93.7686773,42.4152778 93.1291394,42.1507937 92.3771368,42.1507937" id="Fill-26" fill="#221F20" mask="url(#mask-2)"></path>
                            <polygon id="Fill-27" fill="#221F20" mask="url(#mask-2)" points="140.462665 46.608631 139.344733 42.3000992 137.793728 42.3000992 137.793728 48.1050992 138.836124 48.1050992 138.732052 43.3358532 139.969164 48.1050992 140.932667 48.1050992 142.161385 43.3358532 142.065706 48.1050992 143.108103 48.1050992 143.108103 42.3000992 141.555419 42.3000992"></polygon>
                            <path d="M83.242152,43.1292143 C83.9135829,43.1292143 84.3751916,43.5165556 84.6252996,44.281 L85.6441959,43.8595317 C85.4595525,43.3595714 85.16748,42.9466349 84.7545501,42.6446111 C84.31812,42.3152857 83.8095111,42.1514762 83.2337591,42.1514762 C82.4414707,42.1514762 81.7851471,42.4466746 81.2597524,43.030246 C80.7343578,43.6138175 80.4758569,44.3526667 80.4758569,45.2587381 C80.4758569,46.0897302 80.7024648,46.7808016 81.1623949,47.3404841 C81.6558966,47.9479444 82.3273275,48.2516746 83.1699732,48.2516746 C83.786011,48.2516746 84.3013342,48.0366746 84.73105,47.6117937 L84.73105,48.1049286 L85.6441959,48.1049286 L85.6441959,44.9294127 L83.242152,44.9294127 L83.242152,45.8832619 L84.6655855,45.8832619 C84.6252996,46.3525079 84.4473704,46.7074286 84.1485837,46.9480238 C83.90519,47.1357222 83.6064033,47.2346905 83.2589378,47.2346905 C82.7805433,47.2346905 82.392792,47.0521111 82.0923267,46.6988968 C81.7935399,46.3439762 81.6391108,45.8525476 81.6391108,45.2280238 C81.6391108,44.6256825 81.7683613,44.1257222 82.0352551,43.7469127 C82.3273275,43.3339762 82.7318646,43.1292143 83.242152,43.1292143" id="Fill-28" fill="#221F20" mask="url(#mask-2)"></path>
                            <path d="M150.99708,45.8102302 C150.99708,46.1139603 150.980294,46.3204286 150.956794,46.4364603 C150.914829,46.6241587 150.827543,46.7811429 150.681507,46.9108254 C150.463292,47.1019365 150.162827,47.1991984 149.766683,47.1991984 C149.159038,47.1991984 148.771286,46.9944365 148.610143,46.5746746 C148.559786,46.4518175 148.536286,46.2129286 148.536286,45.8665397 L148.536286,42.3002698 L147.468711,42.3002698 L147.468711,45.7624524 C147.468711,46.3460238 147.495568,46.7299524 147.550961,46.9210635 C147.720497,47.4892778 148.108248,47.8749127 148.720929,48.0967381 C149.021394,48.2042381 149.353753,48.2520159 149.73479,48.2520159 C150.453221,48.2520159 151.027294,48.0626111 151.458688,47.6855079 C151.723904,47.446619 151.901833,47.1753095 151.990797,46.8715794 C152.047869,46.6736429 152.073048,46.3699127 152.073048,45.9586825 L152.073048,42.3002698 L150.99708,42.3002698 L150.99708,45.8102302 Z" id="Fill-29" fill="#221F20" mask="url(#mask-2)"></path>
                            <path d="M160.268197,45.1183056 C159.999625,44.9306071 159.595088,44.7821548 159.054586,44.6592976 L158.463727,44.5279087 C158.091083,44.446004 157.847689,44.3709246 157.743617,44.3214405 C157.523723,44.2156468 157.411259,44.0586627 157.411259,43.835131 C157.411259,43.6218373 157.515331,43.449496 157.735224,43.3181071 C157.936653,43.19525 158.18844,43.1287024 158.487227,43.1287024 C158.88505,43.1287024 159.215729,43.2362024 159.499409,43.449496 C159.645445,43.5655278 159.798196,43.7446944 159.96941,43.9921151 L160.842271,43.3249325 C160.274911,42.5468373 159.507802,42.1509643 158.544298,42.1509643 C157.872868,42.1509643 157.320616,42.3147738 156.911043,42.6440992 C156.498113,42.9717183 156.286612,43.4085437 156.286612,43.9614008 C156.286612,44.6422341 156.612256,45.1183056 157.250115,45.3827897 C157.419652,45.447631 157.652974,45.521004 157.970225,45.5892579 L158.658442,45.736004 C159.054586,45.8179087 159.272801,45.9015198 159.32148,45.916877 C159.605159,46.0329087 159.749517,46.2206071 159.749517,46.4919167 C159.749517,46.8058849 159.588373,47.0277103 159.264408,47.1608056 C159.111657,47.2239405 158.900157,47.2597738 158.64837,47.2597738 C157.847689,47.2597738 157.25683,46.9611627 156.877471,46.3775913 L155.979432,47.0191786 C156.313469,47.5617976 156.805292,47.9320754 157.459938,48.1197738 C157.758724,48.2119167 158.099475,48.2511627 158.478834,48.2511627 C159.150265,48.2511627 159.709231,48.1044167 160.145661,47.8194563 C160.655948,47.4798929 160.906056,47.0021151 160.906056,46.386123 C160.906056,45.8349722 160.696234,45.4152103 160.268197,45.1183056" id="Fill-30" fill="#221F20" mask="url(#mask-2)"></path>
                            <path d="M117.439637,45.0379365 C117.147564,45.0447619 116.912563,45.0532937 116.734634,45.0532937 L116.36199,45.0532937 L116.36199,43.2360317 L116.855492,43.2360317 C117.446351,43.2360317 117.827388,43.2752778 117.988531,43.3588889 C118.288997,43.515873 118.443426,43.7684127 118.443426,44.1421032 C118.443426,44.7069048 118.111068,45.0140476 117.439637,45.0379365 M119.087999,45.3246032 C119.380072,45.020873 119.526108,44.6335317 119.526108,44.1489286 C119.526108,43.5380556 119.316286,43.0619841 118.894963,42.7173016 C118.668355,42.5278968 118.409854,42.4135714 118.111068,42.3555556 C117.90796,42.3146032 117.583994,42.299246 117.122386,42.299246 L115.302808,42.299246 L115.302808,48.104246 L116.36199,48.104246 L116.36199,45.9474206 L117.317101,45.9474206 L118.45014,48.104246 L119.672144,48.104246 L118.40314,45.7443651 C118.668355,45.6624603 118.894963,45.5208333 119.087999,45.3246032" id="Fill-31" fill="#221F20" mask="url(#mask-2)"></path>
                            <polygon id="Fill-32" fill="#221F20" mask="url(#mask-2)" points="127.099512 46.4023333 124.571575 42.3002698 123.613108 42.3002698 123.613108 48.1035635 124.653826 48.1035635 124.59004 44.0339206 127.09112 48.1035635 128.019373 48.1035635 128.019373 42.3002698 126.968583 42.3002698"></polygon>
                            <polygon id="Fill-33" fill="#221F20" mask="url(#mask-2)" points="39.5244492 46.4023333 36.9998692 42.3002698 36.0380445 42.3002698 36.0380445 48.1035635 37.0804409 48.1035635 37.0149764 44.0339206 39.5160563 48.1035635 40.4459881 48.1035635 40.4459881 42.3002698 39.3951988 42.3002698"></polygon>
                            <polygon id="Fill-34" fill="#221F20" mask="url(#mask-2)" points="30.5761222 44.4954881 28.123721 44.4954881 28.123721 42.2994167 27.0595031 42.2994167 27.0595031 48.1044167 28.123721 48.1044167 28.123721 45.4646944 30.5761222 45.4646944 30.5761222 48.1044167 31.6520902 48.1044167 31.6520902 42.2994167 30.5761222 42.2994167"></polygon>
                            <path d="M21.3222942,46.814246 C21.0151146,47.102619 20.6508634,47.2510714 20.2379334,47.2510714 C19.7528246,47.2510714 19.3550018,47.0701984 19.0562151,46.6999206 C18.7406425,46.3142857 18.5778206,45.8040873 18.5778206,45.1607937 C18.5778206,44.5584524 18.7322497,44.0653175 19.0310364,43.6984524 C19.3315017,43.3247619 19.719253,43.1438889 20.2127547,43.1438889 C20.7482208,43.1438889 21.176258,43.3674206 21.4834376,43.8127778 C21.7671172,44.2154762 21.8963676,44.7239683 21.8879747,45.3246032 C21.8812604,45.9661905 21.6865455,46.4593254 21.3222942,46.814246 M20.2211476,42.1507937 C19.4372521,42.1507937 18.7876427,42.4374603 18.2639266,43.0227381 C17.738532,43.5977778 17.4800311,44.3315079 17.4800311,45.2119841 C17.4800311,46.0498016 17.7301391,46.7647619 18.238748,47.3636905 C18.7473569,47.9575 19.4036805,48.2526984 20.2043618,48.2526984 C21.0554005,48.2526984 21.7268313,47.9489683 22.2354402,47.3500397 C22.7121561,46.7818254 22.9454783,46.0668651 22.9538712,45.201746 C22.9639427,44.2547222 22.6785846,43.4988095 22.1229755,42.9323016 C21.6143666,42.4152778 20.9748287,42.1507937 20.2211476,42.1507937" id="Fill-35" fill="#221F20" mask="url(#mask-2)"></path>
                            <path d="M12.2850027,46.0078254 C12.2850027,46.2791349 12.2766098,46.4668333 12.2615026,46.5743333 C12.2363239,46.7244921 12.1708594,46.8473492 12.0818948,46.9360794 C11.9375372,47.0930635 11.7193222,47.1681429 11.4272497,47.1681429 C11.3063922,47.1681429 11.1200701,47.144254 10.8615692,47.0845317 L10.8615692,48.1544127 C11.1200701,48.2038968 11.3382851,48.2260794 11.5178929,48.2260794 C12.2615026,48.2260794 12.7852186,48.0144921 13.085684,47.5861984 C13.2552203,47.3404841 13.3441848,46.9480238 13.3441848,46.4019921 L13.3441848,42.2999286 L12.2850027,42.2999286 L12.2850027,46.0078254 Z" id="Fill-36" fill="#221F20" mask="url(#mask-2)"></path>
                            <polygon id="Fill-37" fill="#221F20" mask="url(#mask-2)" points="399.820965 43.2684524 399.820965 42.299246 395.559058 42.299246 395.559058 48.104246 399.820965 48.104246 399.820965 47.1265079 396.609847 47.1265079 396.609847 45.5703175 399.361035 45.5703175 399.361035 44.6352381 396.609847 44.6352381 396.609847 43.2684524"></polygon>
                            <path d="M52.0043347,45.1933849 C51.8734057,45.2292183 51.6719764,45.242869 51.3983683,45.242869 L50.6279014,45.242869 L50.6279014,43.2276706 L51.4386542,43.2276706 C51.9153701,43.2276706 52.2477284,43.3095754 52.4340504,43.4733849 C52.6203725,43.630369 52.7093371,43.8777897 52.7093371,44.2071151 C52.7093371,44.7412024 52.4743363,45.0705278 52.0043347,45.1933849 M52.4592291,42.3898532 C52.2410141,42.330131 51.9153701,42.2994167 51.4772615,42.2994167 L49.553612,42.2994167 L49.553612,48.1044167 L50.6279014,48.1044167 L50.6279014,46.136996 L51.4621543,46.136996 C51.8901914,46.136996 52.2074425,46.1148135 52.4256575,46.0653294 C52.904052,45.956123 53.2582318,45.7206468 53.4932326,45.350369 C53.6963405,45.0381071 53.8004122,44.666123 53.8004122,44.2327103 C53.8004122,43.7054484 53.6459831,43.268623 53.3388035,42.9239405 C53.1054813,42.6611627 52.805016,42.4888214 52.4592291,42.3898532" id="Fill-38" fill="#221F20" mask="url(#mask-2)"></path>
                            <polygon id="Fill-39" fill="#221F20" mask="url(#mask-2)" points="52.8567162 48.104246 53.5818615 48.104246 53.5818615 47.3380952 52.8567162 47.3380952"></polygon>
                            <polygon id="Fill-40" fill="#221F20" mask="url(#mask-2)" points="65.1042865 46.608631 63.9863542 42.3000992 62.4353489 42.3000992 62.4353489 48.1050992 63.4777453 48.1050992 63.3719949 43.3358532 64.6107849 48.1050992 65.5726096 48.1050992 66.8046852 43.3358532 66.7056492 48.1050992 67.7480456 48.1050992 67.7480456 42.3000992 66.1970403 42.3000992"></polygon>
                            <path d="M75.4344182,46.6581151 C75.1524173,47.0369246 74.788166,47.224623 74.3416645,47.224623 C73.8817344,47.224623 73.5006974,47.04375 73.2019106,46.6734722 C72.9031239,46.3117262 72.7570877,45.8100595 72.7570877,45.1684722 C72.7570877,44.5507738 72.9031239,44.0661706 73.1951963,43.6975992 C73.4839116,43.3256151 73.8649486,43.1447421 74.3332716,43.1447421 C74.7965589,43.1447421 75.1356315,43.3170833 75.3622394,43.6549405 C75.4679898,43.8119246 75.5401686,44.0081548 75.5720616,44.2299802 L76.6396366,43.9416071 C76.2602782,42.7522817 75.483097,42.1516468 74.3097715,42.1516468 C73.5409832,42.1516468 72.9098382,42.4058929 72.4096222,42.924623 C71.8674418,43.4808929 71.600548,44.2385119 71.600548,45.1855357 C71.600548,46.1291468 71.8607275,46.8867659 72.3693363,47.4464484 C72.862838,47.9805357 73.493983,48.2518452 74.2694857,48.2518452 C75.0869528,48.2518452 75.7432764,47.9583532 76.245171,47.3560119 C76.4382074,47.1188294 76.5993508,46.8304563 76.7386727,46.4857738 L75.733205,46.0574802 C75.6610262,46.286131 75.5636687,46.4857738 75.4344182,46.6581151" id="Fill-41" fill="#221F20" mask="url(#mask-2)"></path>
                            <polygon id="Fill-42" fill="#221F20" mask="url(#mask-2)" points="364.727959 48.104246 365.778749 48.104246 365.778749 42.299246 364.727959 42.299246"></polygon>
                            <path d="M359.412745,46.6581151 C359.129065,47.0369246 358.764814,47.224623 358.32167,47.224623 C357.858382,47.224623 357.479024,47.04375 357.178559,46.6734722 C356.878093,46.3117262 356.733736,45.8100595 356.733736,45.1684722 C356.733736,44.5507738 356.878093,44.0661706 357.171844,43.6975992 C357.462238,43.3256151 357.841597,43.1447421 358.311598,43.1447421 C358.773207,43.1447421 359.11228,43.3170833 359.338887,43.6549405 C359.444638,43.8119246 359.516817,44.0081548 359.54871,44.2299802 L360.616285,43.9416071 C360.238605,42.7522817 359.459745,42.1516468 358.288098,42.1516468 C357.517631,42.1516468 356.888165,42.4058929 356.387949,42.924623 C355.845768,43.4808929 355.577196,44.2385119 355.577196,45.1855357 C355.577196,46.1291468 355.837375,46.8867659 356.345984,47.4464484 C356.841165,47.9805357 357.470631,48.2518452 358.246134,48.2518452 C359.063601,48.2518452 359.718246,47.9583532 360.221819,47.3560119 C360.413177,47.1188294 360.577677,46.8304563 360.715321,46.4857738 L359.71321,46.0574802 C359.635996,46.286131 359.540317,46.4857738 359.412745,46.6581151" id="Fill-43" fill="#221F20" mask="url(#mask-2)"></path>
                            <polygon id="Fill-44" fill="#221F20" mask="url(#mask-2)" points="295.411116 48.104246 299.674702 48.104246 299.674702 47.1265079 296.461905 47.1265079 296.461905 45.5720238 299.213093 45.5720238 299.213093 44.6352381 296.461905 44.6352381 296.461905 43.2684524 299.674702 43.2684524 299.674702 42.299246 295.411116 42.299246"></polygon>
                            <path d="M306.341674,46.9944365 C306.115066,47.084873 305.670244,47.1258254 305.007206,47.1258254 L304.552311,47.1258254 L304.552311,43.2848333 L305.11967,43.2848333 C305.492314,43.2848333 305.742422,43.2933651 305.871673,43.3087222 C306.024423,43.3240794 306.17046,43.3667381 306.318174,43.4418175 C306.900641,43.7199524 307.192713,44.3308254 307.192713,45.2590794 C307.192713,46.1975714 306.909033,46.7726111 306.341674,46.9944365 M307.224606,42.750746 C306.803283,42.4453095 306.237603,42.3002698 305.5326,42.3002698 L303.488093,42.3002698 L303.488093,48.1035635 L305.314385,48.1035635 C306.140245,48.1035635 306.754604,47.9875317 307.150749,47.7503492 C307.546893,47.5131667 307.84568,47.1599524 308.047109,46.6907063 C308.228395,46.2709444 308.324074,45.7846349 308.324074,45.2488413 C308.324074,44.1072937 307.958144,43.2780079 307.224606,42.750746" id="Fill-45" fill="#221F20" mask="url(#mask-2)"></path>
                            <polygon id="Fill-46" fill="#221F20" mask="url(#mask-2)" points="261.830676 44.4954881 259.378275 44.4954881 259.378275 42.2994167 258.312378 42.2994167 258.312378 48.1044167 259.378275 48.1044167 259.378275 45.4646944 261.830676 45.4646944 261.830676 48.1044167 262.906644 48.1044167 262.906644 42.2994167 261.830676 42.2994167"></polygon>
                            <polygon id="Fill-47" fill="#221F20" mask="url(#mask-2)" points="250.221469 43.2851746 251.765759 43.2851746 251.765759 48.1039048 252.831656 48.1039048 252.831656 43.2851746 254.409519 43.2851746 254.409519 42.2989048 250.221469 42.2989048"></polygon>
                            <polygon id="Fill-48" fill="#221F20" mask="url(#mask-2)" points="288.422024 46.608631 287.30577 42.3000992 285.754765 42.3000992 285.754765 48.1050992 286.797161 48.1050992 286.689732 43.3358532 287.930201 48.1050992 288.890347 48.1050992 290.122423 43.3358532 290.025065 48.1050992 291.067462 48.1050992 291.067462 42.3000992 289.513099 42.3000992"></polygon>
                            <path d="M351.120909,45.1183056 C350.854016,44.9306071 350.449479,44.7821548 349.908977,44.6592976 L349.316439,44.5279087 C348.943795,44.446004 348.700401,44.3709246 348.596329,44.3214405 C348.378114,44.2156468 348.26565,44.0586627 348.26565,43.835131 C348.26565,43.6218373 348.368043,43.449496 348.587936,43.3181071 C348.789366,43.19525 349.041152,43.1287024 349.33826,43.1287024 C349.737762,43.1287024 350.066763,43.2362024 350.350442,43.449496 C350.496479,43.5655278 350.650908,43.7446944 350.822123,43.9921151 L351.694983,43.3249325 C351.127624,42.5468373 350.360514,42.1509643 349.397011,42.1509643 C348.723901,42.1509643 348.175006,42.3147738 347.763755,42.6440992 C347.350825,42.9717183 347.141003,43.4085437 347.141003,43.9614008 C347.141003,44.6422341 347.46329,45.1183056 348.101149,45.3827897 C348.274043,45.447631 348.505686,45.521004 348.821259,45.5892579 L349.509475,45.736004 C349.908977,45.8179087 350.125513,45.9015198 350.174192,45.916877 C350.45955,46.0329087 350.603908,46.2206071 350.603908,46.4919167 C350.603908,46.8058849 350.441086,47.0277103 350.115442,47.1608056 C349.962691,47.2239405 349.752869,47.2597738 349.502761,47.2597738 C348.700401,47.2597738 348.109542,46.9611627 347.728505,46.3775913 L346.833823,47.0191786 C347.164503,47.5617976 347.656326,47.9320754 348.31265,48.1197738 C348.611437,48.2119167 348.952188,48.2511627 349.331546,48.2511627 C350.002977,48.2511627 350.560265,48.1044167 350.998373,47.8194563 C351.506982,47.4798929 351.75709,47.0021151 351.75709,46.386123 C351.75709,45.8349722 351.548947,45.4152103 351.120909,45.1183056" id="Fill-49" fill="#221F20" mask="url(#mask-2)"></path>
                            <path d="M327.440718,46.0252302 L328.234685,43.3530873 L329.01858,46.0252302 L327.440718,46.0252302 Z M327.610254,42.3002698 L325.684926,48.1035635 L326.828037,48.1035635 L327.157038,46.9705476 L329.300581,46.9705476 L329.63294,48.1035635 L330.774372,48.1035635 L328.825544,42.3002698 L327.610254,42.3002698 Z" id="Fill-50" fill="#221F20" mask="url(#mask-2)"></path>
                            <polygon id="Fill-51" fill="#221F20" mask="url(#mask-2)" points="184.812688 46.608631 183.696434 42.3000992 182.14375 42.3000992 182.14375 48.1050992 183.186147 48.1050992 183.082075 43.3358532 184.320865 48.1050992 185.28269 48.1050992 186.513087 43.3358532 186.415729 48.1050992 187.458126 48.1050992 187.458126 42.3000992 185.905442 42.3000992"></polygon>
                            <polygon id="Fill-52" fill="#221F20" mask="url(#mask-2)" points="165.057513 48.104246 169.321099 48.104246 169.321099 47.1265079 166.106624 47.1265079 166.106624 45.5720238 168.857812 45.5720238 168.857812 44.6352381 166.106624 44.6352381 166.106624 43.2684524 169.321099 43.2684524 169.321099 42.299246 165.057513 42.299246"></polygon>
                            <polygon id="Fill-53" fill="#221F20" mask="url(#mask-2)" points="370.148924 48.104246 374.410832 48.104246 374.410832 47.1265079 371.199714 47.1265079 371.199714 45.5720238 373.949223 45.5720238 373.949223 44.6352381 371.199714 44.6352381 371.199714 43.2684524 374.410832 43.2684524 374.410832 42.299246 370.148924 42.299246"></polygon>
                            <polygon id="Fill-54" fill="#221F20" mask="url(#mask-2)" points="244.969033 42.2999286 243.894743 42.2999286 243.894743 48.1049286 247.235112 48.1049286 247.235112 47.1186587 244.969033 47.1186587"></polygon>
                            <path d="M176.73101,45.8102302 C176.73101,46.1139603 176.715903,46.3204286 176.690725,46.4364603 C176.650439,46.6241587 176.561474,46.7811429 176.415438,46.9108254 C176.197223,47.1019365 175.898436,47.1991984 175.500613,47.1991984 C174.894647,47.1991984 174.506896,46.9944365 174.344074,46.5746746 C174.293716,46.4518175 174.270216,46.2129286 174.270216,45.8665397 L174.270216,42.3002698 L173.20432,42.3002698 L173.20432,45.7624524 C173.20432,46.3460238 173.229499,46.7299524 173.284892,46.9210635 C173.454428,47.4892778 173.842179,47.8749127 174.456538,48.0967381 C174.755325,48.2042381 175.087683,48.2520159 175.46872,48.2520159 C176.190509,48.2520159 176.764582,48.0626111 177.192619,47.6855079 C177.459513,47.446619 177.635764,47.1753095 177.724728,46.8715794 C177.7818,46.6736429 177.8053,46.3699127 177.8053,45.9586825 L177.8053,42.3002698 L176.73101,42.3002698 L176.73101,45.8102302 Z" id="Fill-55" fill="#221F20" mask="url(#mask-2)"></path>
                            <path d="M200.670878,46.814246 C200.363698,47.102619 199.997768,47.2510714 199.586517,47.2510714 C199.09973,47.2510714 198.703585,47.0701984 198.40312,46.6999206 C198.087548,46.3142857 197.926404,45.8040873 197.926404,45.1607937 C197.926404,44.5584524 198.079155,44.0653175 198.37962,43.6984524 C198.678407,43.3247619 199.067837,43.1438889 199.55966,43.1438889 C200.096805,43.1438889 200.523163,43.3674206 200.832021,43.8127778 C201.114022,44.2154762 201.244951,44.7239683 201.238237,45.3246032 C201.228166,45.9661905 201.033451,46.4593254 200.670878,46.814246 M199.569731,42.1507937 C198.784157,42.1507937 198.136226,42.4374603 197.610832,43.0227381 C197.085437,43.5977778 196.828615,44.3315079 196.828615,45.2119841 C196.828615,46.0498016 197.077044,46.7647619 197.587332,47.3636905 C198.095941,47.9575 198.750586,48.2526984 199.552946,48.2526984 C200.403984,48.2526984 201.075415,47.9489683 201.584024,47.3500397 C202.06074,46.7818254 202.294062,46.0668651 202.302455,45.201746 C202.310848,44.2547222 202.028847,43.4988095 201.471559,42.9323016 C200.961272,42.4152778 200.323412,42.1507937 199.569731,42.1507937" id="Fill-56" fill="#221F20" mask="url(#mask-2)"></path>
                            <polygon id="Fill-57" fill="#221F20" mask="url(#mask-2)" points="335.506449 42.2999286 334.430481 42.2999286 334.430481 48.1049286 337.77085 48.1049286 337.77085 47.1186587 335.506449 47.1186587"></polygon>
                            <path d="M236.905148,46.0252302 L237.697436,43.3530873 L238.481332,46.0252302 L236.905148,46.0252302 Z M237.074684,42.3002698 L235.149356,48.1035635 L236.28911,48.1035635 L236.61979,46.9705476 L238.765012,46.9705476 L239.09737,48.1035635 L240.238802,48.1035635 L238.289974,42.3002698 L237.074684,42.3002698 Z" id="Fill-58" fill="#221F20" mask="url(#mask-2)"></path>
                            <polygon id="Fill-59" fill="#221F20" mask="url(#mask-2)" points="227.432098 48.104246 231.692327 48.104246 231.692327 47.1265079 228.482887 47.1265079 228.482887 45.5720238 231.232397 45.5720238 231.232397 44.6352381 228.482887 44.6352381 228.482887 43.2684524 231.692327 43.2684524 231.692327 42.299246 227.432098 42.299246"></polygon>
                            <polygon id="Fill-60" fill="#221F20" mask="url(#mask-2)" points="222.32637 44.4954881 219.873968 44.4954881 219.873968 42.2994167 218.808072 42.2994167 218.808072 48.1044167 219.873968 48.1044167 219.873968 45.4646944 222.32637 45.4646944 222.32637 48.1044167 223.402338 48.1044167 223.402338 42.2994167 222.32637 42.2994167"></polygon>
                            <polygon id="Fill-61" fill="#221F20" mask="url(#mask-2)" points="207.246368 48.1450278 207.246368 45.5940357 210.016021 45.5940357 210.016021 44.6504246 207.246368 44.6504246 207.246368 43.2734008 210.479308 43.2734008 210.479308 42.3007817 206.188865 42.3007817 206.188865 48.1450278"></polygon>
                            <path d="M273.79121,47.3534524 C273.515923,47.3534524 273.274208,47.2647222 273.087886,47.0821429 C272.901564,46.9012698 272.810921,46.6828571 272.810921,46.4217857 C272.810921,46.0498016 273.069422,45.7034127 273.586423,45.4048016 L274.655677,47.0087698 C274.397176,47.2374206 274.101746,47.3534524 273.79121,47.3534524 M274.318283,43.0244444 C274.460962,43.0244444 274.576784,43.0671032 274.66407,43.159246 C274.754713,43.2496825 274.798356,43.3674206 274.798356,43.5056349 C274.798356,43.8025397 274.566712,44.0277778 274.101746,44.1813492 C273.925496,43.9032143 273.836531,43.6677381 273.836531,43.4971032 C273.836531,43.1763095 273.997675,43.0244444 274.318283,43.0244444 M276.626327,47.2749603 C276.376219,47.2749603 276.164718,47.1811111 275.993503,46.9917063 C276.376219,46.5122222 276.626327,45.9132937 276.725363,45.1983333 L275.699752,45.1983333 C275.65443,45.6044444 275.54868,45.9405952 275.369072,46.203373 C275.308643,46.1385317 275.174357,45.9405952 274.949428,45.6146825 C274.736249,45.2973016 274.603641,45.0805952 274.549927,44.981627 C274.969571,44.834881 275.290179,44.6079365 275.493287,44.3007937 C275.65443,44.0567857 275.736681,43.8025397 275.736681,43.5209921 C275.736681,43.1677778 275.610787,42.8589286 275.360679,42.5978571 C275.085393,42.3077778 274.721141,42.1644444 274.283033,42.1644444 C273.863389,42.1644444 273.524316,42.2890079 273.257422,42.5517857 C272.972064,42.831627 272.831064,43.1950794 272.831064,43.6557937 C272.831064,43.9936508 272.921707,44.3093254 273.10635,44.5976984 C272.189847,45.1334921 271.734953,45.7597222 271.734953,46.4951587 C271.734953,46.9371032 271.86756,47.317619 272.144525,47.6537698 C272.502062,48.0786508 273.025779,48.2936508 273.730781,48.2936508 C274.272961,48.2936508 274.771499,48.1315476 275.244858,47.815873 C275.521823,48.059881 275.892788,48.1861508 276.367826,48.1861508 C276.411469,48.1861508 276.564219,48.177619 276.821041,48.1605556 L276.821041,47.2527778 C276.758934,47.2647222 276.698505,47.2749603 276.626327,47.2749603" id="Fill-62" fill="#221F20" mask="url(#mask-2)"></path>
                            <polygon id="Fill-63" fill="#221F20" mask="url(#mask-2)" points="312.361388 48.104246 313.413856 48.104246 313.413856 42.299246 312.361388 42.299246"></polygon>
                            <path d="M321.122721,46.6581151 C320.837363,47.0369246 320.473112,47.224623 320.028289,47.224623 C319.568359,47.224623 319.185643,47.04375 318.888535,46.6734722 C318.589748,46.3117262 318.443712,45.8100595 318.443712,45.1684722 C318.443712,44.5507738 318.589748,44.0661706 318.880142,43.6975992 C319.170536,43.3256151 319.551573,43.1447421 320.023253,43.1447421 C320.481505,43.1447421 320.822256,43.3170833 321.047185,43.6549405 C321.152936,43.8119246 321.226793,44.0081548 321.258686,44.2299802 L322.326261,43.9416071 C321.946903,42.7522817 321.168043,42.1516468 319.998075,42.1516468 C319.229286,42.1516468 318.598141,42.4058929 318.096247,42.924623 C317.554066,43.4808929 317.287172,44.2385119 317.287172,45.1855357 C317.287172,46.1291468 317.545673,46.8867659 318.055961,47.4464484 C318.549462,47.9805357 319.180607,48.2518452 319.95611,48.2518452 C320.775256,48.2518452 321.428222,47.9583532 321.930117,47.3560119 C322.123153,47.1188294 322.285975,46.8304563 322.425297,46.4857738 L321.419829,46.0574802 C321.347651,46.286131 321.250293,46.4857738 321.122721,46.6581151" id="Fill-64" fill="#221F20" mask="url(#mask-2)"></path>
                        </g>
                    </g>
                </g>
            </g>
        </g>
    </g>
</svg>