<?xml version="1.0" encoding="UTF-8" standalone="no"?>
<svg width="36px" height="36px" viewBox="0 0 36 36" version="1.1" xmlns="http://www.w3.org/2000/svg" xmlns:xlink="http://www.w3.org/1999/xlink">
    <!-- Generator: Sketch 40.1 (33804) - http://www.bohemiancoding.com/sketch -->
    <title>user add</title>
    <desc>Created with Sketch.</desc>
    <defs></defs>
    <g id="HM" stroke="none" stroke-width="1" fill="none" fill-rule="evenodd">
        <g id="Home" transform="translate(-1556.000000, -1127.000000)" fill="#FFFFFF">
            <g id="Plan-Your-Visit" transform="translate(0.000000, 825.000000)">
                <g id="Group-3" transform="translate(152.000000, 220.000000)">
                    <g id="Tickets-Copy-3" transform="translate(1227.000000, 0.000000)">
                        <g id="user-add" transform="translate(177.000000, 82.000000)">
                            <g id="Layer_1">
                                <g id="Group">
                                    <path d="M29.7391304,26.6086957 L20.3478261,26.6086957 C19.4086957,26.6086957 18.7826087,25.9826087 18.7826087,25.0434783 C18.7826087,24.1043478 19.4086957,23.4782609 20.3478261,23.4782609 L29.7391304,23.4782609 C30.6782609,23.4782609 31.3043478,24.1043478 31.3043478,25.0434783 C31.3043478,25.9826087 30.6782609,26.6086957 29.7391304,26.6086957 L29.7391304,26.6086957 Z" id="Shape"></path>
                                    <path d="M25.0434783,31.3043478 C24.1043478,31.3043478 23.4782609,30.6782609 23.4782609,29.7391304 L23.4782609,20.3478261 C23.4782609,19.4086957 24.1043478,18.7826087 25.0434783,18.7826087 C25.9826087,18.7826087 26.6086957,19.4086957 26.6086957,20.3478261 L26.6086957,29.7391304 C26.6086957,30.6782609 25.9826087,31.3043478 25.0434783,31.3043478 L25.0434783,31.3043478 Z" id="Shape"></path>
                                    <path d="M25.0434783,36 C18.9391304,36 14.0869565,31.1478261 14.0869565,25.0434783 C14.0869565,18.9391304 18.9391304,14.0869565 25.0434783,14.0869565 C31.1478261,14.0869565 36,18.9391304 36,25.0434783 C36,31.1478261 31.1478261,36 25.0434783,36 L25.0434783,36 Z M25.0434783,17.2173913 C20.6608696,17.2173913 17.2173913,20.6608696 17.2173913,25.0434783 C17.2173913,29.426087 20.6608696,32.8695652 25.0434783,32.8695652 C29.426087,32.8695652 32.8695652,29.426087 32.8695652,25.0434783 C32.8695652,20.6608696 29.426087,17.2173913 25.0434783,17.2173913 L25.0434783,17.2173913 Z" id="Shape"></path>
                                    <path d="M15.6521739,18.7826087 C14.2434783,18.7826087 12.9913043,18.3130435 11.8956522,17.6869565 C9.23478261,15.9652174 7.82608696,12.3652174 7.82608696,7.82608696 C7.82608696,3.44347826 11.2695652,0 15.6521739,0 C20.0347826,0 23.4782609,3.44347826 23.4782609,7.82608696 C23.4782609,12.3652174 22.0695652,15.9652174 19.4086957,17.6869565 C18.3130435,18.3130435 17.0608696,18.7826087 15.6521739,18.7826087 L15.6521739,18.7826087 Z M15.6521739,3.13043478 C12.9913043,3.13043478 10.9565217,5.16521739 10.9565217,7.82608696 C10.9565217,11.2695652 11.8956522,13.9304348 13.6173913,15.026087 C14.8695652,15.8086957 16.4347826,15.8086957 17.6869565,15.026087 C19.4086957,13.9304348 20.3478261,11.2695652 20.3478261,7.82608696 C20.3478261,5.16521739 18.3130435,3.13043478 15.6521739,3.13043478 L15.6521739,3.13043478 Z" id="Shape"></path>
                                    <path d="M15.6521739,34.4347826 C12.0521739,34.4347826 0,33.9652174 0,28.173913 C0,22.3826087 4.22608696,20.3478261 8.92173913,18.9391304 C9.23478261,18.7826087 10.4869565,18.3130435 10.9565217,15.9652174 L14.0869565,16.5913043 C13.6173913,19.4086957 12.0521739,21.1304348 9.86086957,21.9130435 C5.16521739,23.4782609 3.13043478,24.7304348 3.13043478,28.173913 C3.13043478,29.8956522 9.70434783,31.3043478 15.6521739,31.3043478 C15.6521739,31.3043478 17.373913,31.3043478 19.4086957,31.1478261 L19.7217391,34.2782609 C17.5304348,34.4347826 15.6521739,34.4347826 15.6521739,34.4347826 L15.6521739,34.4347826 Z" id="Shape"></path>
                                    <path d="M17.6869565,18.3130435 C17.373913,17.6869565 17.2173913,17.0608696 17.2173913,16.5913043 L20.3478261,15.9652174 C20.3478261,16.2782609 20.5043478,16.7478261 20.6608696,17.2173913 L17.6869565,18.3130435 L17.6869565,18.3130435 Z" id="Shape"></path>
                                </g>
                            </g>
                        </g>
                    </g>
                </g>
            </g>
        </g>
    </g>
</svg>