<?xml version="1.0" encoding="UTF-8" standalone="no"?>
<svg width="24px" height="24px" viewBox="0 0 24 24" version="1.1" xmlns="http://www.w3.org/2000/svg" xmlns:xlink="http://www.w3.org/1999/xlink">
    <!-- Generator: Sketch 40.1 (33804) - http://www.bohemiancoding.com/sketch -->
    <title>Shape</title>
    <desc>Created with Sketch.</desc>
    <defs></defs>
    <g id="HM" stroke="none" stroke-width="1" fill="none" fill-rule="evenodd">
        <g id="Events" transform="translate(-1723.000000, -583.000000)" fill="#D8D8D8">
            <g id="Tabs-&amp;-Search" transform="translate(629.000000, 565.000000)">
                <g id="Button-Copy" transform="translate(801.000000, 0.000000)">
                    <g id="Button">
                        <path d="M316.680636,40.1378182 L310.489455,33.9466364 C311.833182,32.2669091 312.636364,30.1363636 312.636364,27.8181818 C312.636364,22.3958182 308.240818,18 302.818182,18 C297.395818,18 293,22.3958182 293,27.8181818 C293,33.2405455 297.395818,37.6363636 302.818182,37.6363636 C305.136364,37.6363636 307.266909,36.8329091 308.946636,35.4891818 L315.137818,41.6803636 C315.350818,41.8933636 315.630091,42 315.909091,42 C316.188364,42 316.467636,41.8933636 316.680636,41.6803636 C317.106636,41.2546364 317.106636,40.5635455 316.680636,40.1378182 L316.680636,40.1378182 Z M302.818182,35.4545455 C298.600727,35.4545455 295.181818,32.0356364 295.181818,27.8181818 C295.181818,23.6007273 298.600727,20.1818182 302.818182,20.1818182 C307.035909,20.1818182 310.454545,23.6007273 310.454545,27.8181818 C310.454545,32.0356364 307.035909,35.4545455 302.818182,35.4545455 L302.818182,35.4545455 Z" id="Shape"></path>
                    </g>
                </g>
            </g>
        </g>
    </g>
</svg>