<?xml version="1.0" encoding="UTF-8" standalone="no"?>
<svg width="52px" height="52px" viewBox="0 0 52 52" version="1.1" xmlns="http://www.w3.org/2000/svg" xmlns:xlink="http://www.w3.org/1999/xlink">
    <!-- Generator: Sketch 40.1 (33804) - http://www.bohemiancoding.com/sketch -->
    <title>Group 17</title>
    <desc>Created with Sketch.</desc>
    <defs></defs>
    <g id="HM" stroke="none" stroke-width="1" fill="none" fill-rule="evenodd">
        <g id="Home" transform="translate(-730.000000, -1119.000000)" stroke="#FFFFFF" fill="#FFFFFF">
            <g id="Plan-Your-Visit" transform="translate(0.000000, 825.000000)">
                <g id="Group-3" transform="translate(152.000000, 220.000000)">
                    <g id="Tickets" transform="translate(409.000000, 0.000000)">
                        <g id="Group-17" transform="translate(169.000000, 74.000000)">
                            <path d="M37.9997879,40.0832121 L37.9997879,46.0272121 L33.9997879,43.0002121 L29.9997879,46.1882121 L25.9997879,43.0002121 L21.9997879,46.1882121 L17.9997879,43.0002121 L13.9997879,46.0592121 L13.9997879,5.97321213 L17.9997879,9.00021213 L21.9997879,5.81221213 L25.9997879,9.00021213 L29.9997879,5.81221213 L33.9997879,9.00021213 L37.9997879,5.94121213 L37.9997879,40.0832121 Z M38.1327879,4.00021213 L33.9997879,7.00021213 L29.9997879,4.00021213 L25.9997879,7.00021213 L21.9997879,4.00021213 L17.9997879,7.00021213 L13.8657879,4.00021213 L11.9997879,4.00021213 L11.9997879,48.0002121 L13.8667879,48.0002121 L17.9997879,45.0002121 L21.9997879,48.0002121 L25.9997879,45.0002121 L29.9997879,48.0002121 L33.9997879,45.0002121 L38.1337879,48.0002121 L39.9997879,48.0002121 L39.9997879,4.00021213 L38.1327879,4.00021213 Z" id="Fill-7" transform="translate(25.999788, 26.000212) rotate(-315.000000) translate(-25.999788, -26.000212) "></path>
                            <path d="M28.7729157,29.2160843 L14.7729157,29.2160843 C14.2199157,29.2160843 13.7729157,29.6630843 13.7729157,30.2160843 C13.7729157,30.2200843 13.7749157,30.2230843 13.7749157,30.2270843 C13.7749157,30.2310843 13.7729157,30.2340843 13.7729157,30.2380843 C13.7729157,30.7900843 14.2199157,31.2380843 14.7729157,31.2380843 L28.7729157,31.2380843 C29.3259157,31.2380843 29.7729157,30.7900843 29.7729157,30.2380843 C29.7729157,30.2340843 29.7709157,30.2310843 29.7709157,30.2270843 C29.7709157,30.2230843 29.7729157,30.2200843 29.7729157,30.2160843 C29.7729157,29.6630843 29.3259157,29.2160843 28.7729157,29.2160843" id="Fill-1" transform="translate(21.772916, 30.227084) rotate(-315.000000) translate(-21.772916, -30.227084) "></path>
                            <path d="M33,24.989 L19,24.989 C18.447,24.989 18,25.437 18,25.989 C18,25.993 18.002,25.996 18.002,26 C18.002,26.004 18,26.007 18,26.011 C18,26.564 18.447,27.011 19,27.011 L33,27.011 C33.553,27.011 34,26.564 34,26.011 C34,26.007 33.998,26.004 33.998,26 C33.998,25.996 34,25.993 34,25.989 C34,25.437 33.553,24.989 33,24.989" id="Fill-3" transform="translate(26.000000, 26.000000) rotate(-315.000000) translate(-26.000000, -26.000000) "></path>
                            <path d="M37.2270843,20.7619157 L23.2270843,20.7619157 C22.6740843,20.7619157 22.2270843,21.2099157 22.2270843,21.7619157 C22.2270843,21.7659157 22.2290843,21.7689157 22.2290843,21.7729157 C22.2290843,21.7769157 22.2270843,21.7799157 22.2270843,21.7839157 C22.2270843,22.3369157 22.6740843,22.7839157 23.2270843,22.7839157 L37.2270843,22.7839157 C37.7800843,22.7839157 38.2270843,22.3369157 38.2270843,21.7839157 C38.2270843,21.7799157 38.2250843,21.7769157 38.2250843,21.7729157 C38.2250843,21.7689157 38.2270843,21.7659157 38.2270843,21.7619157 C38.2270843,21.2099157 37.7800843,20.7619157 37.2270843,20.7619157" id="Fill-5" transform="translate(30.227084, 21.772916) rotate(-315.000000) translate(-30.227084, -21.772916) "></path>
                        </g>
                    </g>
                </g>
            </g>
        </g>
    </g>
</svg>