<?xml version="1.0" encoding="UTF-8" standalone="no"?>
<svg width="98px" height="71px" viewBox="0 0 98 71" version="1.1" xmlns="http://www.w3.org/2000/svg" xmlns:xlink="http://www.w3.org/1999/xlink">
    <!-- Generator: Sketch 40.1 (33804) - http://www.bohemiancoding.com/sketch -->
    <title>Shape</title>
    <desc>Created with Sketch.</desc>
    <defs></defs>
    <g id="HM" stroke="none" stroke-width="1" fill="none" fill-rule="evenodd">
        <g id="Home" transform="translate(-911.000000, -530.000000)" stroke="#FFFFFF" stroke-width="2">
            <g id="Hero" transform="translate(-2.000000, 151.000000)">
                <g id="Group-2" transform="translate(829.000000, 380.000000)">
                    <path d="M153.571429,34.5 C153.571429,33.1703125 153.035714,32.2 151.964286,31.5890625 L124.535714,14.3390625 C123.428571,13.6203125 122.267857,13.584375 121.053571,14.23125 C119.875,14.878125 119.285714,15.884375 119.285714,17.25 L119.285714,51.75 C119.285714,53.115625 119.875,54.121875 121.053571,54.76875 C121.625,55.05625 122.178571,55.2 122.714286,55.2 C123.428571,55.2 124.035714,55.0203125 124.535714,54.6609375 L151.964286,37.4109375 C153.035714,36.8 153.571429,35.8296875 153.571429,34.5 L153.571429,34.5 Z M181,34.5 C181,37.95 180.982143,40.6453125 180.946429,42.5859375 C180.910714,44.5265625 180.758929,46.9792969 180.491071,49.9441406 C180.223214,52.9089844 179.821429,55.559375 179.285714,57.8953125 C178.714286,60.51875 177.482143,62.7289063 175.589286,64.5257813 C173.696429,66.3226562 171.482143,67.3648438 168.946429,67.6523438 C161.017857,68.5507813 149.035714,69 133,69 C116.964286,69 104.982143,68.5507813 97.0535714,67.6523438 C94.5178572,67.3648438 92.2946429,66.3226562 90.3839286,64.5257813 C88.4732143,62.7289063 87.2321429,60.51875 86.6607143,57.8953125 C86.1607143,55.559375 85.7767857,52.9089844 85.5089286,49.9441406 C85.2410714,46.9792969 85.0892857,44.5265625 85.0535714,42.5859375 C85.0178571,40.6453125 85,37.95 85,34.5 C85,31.05 85.0178571,28.3546875 85.0535714,26.4140625 C85.0892857,24.4734375 85.2410714,22.0207031 85.5089286,19.0558594 C85.7767857,16.0910156 86.1785714,13.440625 86.7142857,11.1046875 C87.2857143,8.48124998 88.5178572,6.27109373 90.4107143,4.47421875 C92.3035714,2.67734377 94.5178572,1.63515623 97.0535714,1.34765625 C104.982143,0.449218732 116.964286,0 133,0 C149.035714,0 161.017857,0.449218732 168.946429,1.34765625 C171.482143,1.63515623 173.705357,2.67734377 175.616071,4.47421875 C177.526786,6.27109373 178.767857,8.48124998 179.339286,11.1046875 C179.839286,13.440625 180.223214,16.0910156 180.491071,19.0558594 C180.758929,22.0207031 180.910714,24.4734375 180.946429,26.4140625 C180.982143,28.3546875 181,31.05 181,34.5 L181,34.5 Z" id="Shape"></path>
                </g>
            </g>
        </g>
    </g>
</svg>